<svg width="25.092773" height="22.499023" viewBox="0 0 25.0928 22.499" fill="none" xmlns="http://www.w3.org/2000/svg" xmlns:xlink="http://www.w3.org/1999/xlink">
	<desc>
			Created with Pixso.
	</desc>
	<defs/>
	<path id="Vector" d="M25.08 20.93L23.41 5.93C23.37 5.59 23.21 5.27 22.95 5.04C22.7 4.81 22.36 4.68 22.01 4.68L17.68 4.68C17.56 3.4 16.97 2.21 16.02 1.34C15.07 0.48 13.83 0 12.54 0C11.25 0 10.02 0.48 9.07 1.34C8.12 2.21 7.52 3.4 7.41 4.68L3.07 4.68C2.72 4.68 2.39 4.81 2.13 5.04C1.87 5.27 1.71 5.59 1.67 5.93L0 20.93C-0.02 21.13 0 21.33 0.06 21.52C0.12 21.71 0.22 21.88 0.35 22.03C0.49 22.17 0.65 22.29 0.83 22.37C1.01 22.45 1.2 22.49 1.4 22.49L23.68 22.49C23.88 22.49 24.07 22.45 24.25 22.37C24.44 22.29 24.6 22.17 24.73 22.03C24.86 21.88 24.96 21.71 25.02 21.52C25.08 21.33 25.1 21.13 25.08 20.93ZM12.54 0.93C13.58 0.93 14.58 1.32 15.35 2.01C16.12 2.7 16.62 3.65 16.73 4.68L8.35 4.68C8.47 3.65 8.96 2.7 9.73 2.01C10.5 1.32 11.5 0.93 12.54 0.93ZM24.03 21.4C23.99 21.45 23.93 21.49 23.87 21.52C23.81 21.54 23.75 21.56 23.68 21.56L1.4 21.56C1.33 21.56 1.27 21.54 1.21 21.52C1.15 21.49 1.1 21.45 1.05 21.4C1.01 21.35 0.97 21.29 0.95 21.23C0.93 21.17 0.93 21.1 0.94 21.04L2.6 6.04C2.62 5.92 2.67 5.82 2.75 5.74C2.84 5.66 2.95 5.62 3.07 5.62L7.38 5.62L7.38 8.9C7.38 9.03 7.43 9.14 7.52 9.23C7.61 9.32 7.73 9.37 7.85 9.37C7.98 9.37 8.1 9.32 8.19 9.23C8.27 9.14 8.32 9.03 8.32 8.9L8.32 5.62L16.76 5.62L16.76 8.9C16.76 9.03 16.81 9.14 16.9 9.23C16.99 9.32 17.1 9.37 17.23 9.37C17.35 9.37 17.47 9.32 17.56 9.23C17.65 9.14 17.7 9.03 17.7 8.9L17.7 5.62L22.01 5.62C22.13 5.62 22.24 5.66 22.33 5.74C22.41 5.82 22.47 5.92 22.48 6.04L24.15 21.04C24.16 21.1 24.15 21.17 24.13 21.23C24.11 21.29 24.08 21.35 24.03 21.4Z" fill="#FFFFFF" fill-opacity="1.000000" fill-rule="nonzero"/>
</svg>
