<svg width="34.000000" height="75.000000" viewBox="0 0 34 75" fill="none" xmlns="http://www.w3.org/2000/svg" xmlns:xlink="http://www.w3.org/1999/xlink">
	<desc>
			Created with Pixso.
	</desc>
	<defs/>
	<path id="l" d="M11.05 52.45Q10.67 51.64 10.67 49.9L10.67 22.42Q10.67 20.62 11.05 19.75Q11.15 19.53 11.3 19.35Q11.73 18.79 12.56 18.55Q13.68 18.21 16.02 18.21Q16.03 18.21 16.04 18.21Q16.14 18.18 16.14 17.86Q16.14 17.53 16.04 17.5Q16.03 17.5 16.02 17.5L13.19 17.55Q10.67 17.67 9.05 17.67Q7.61 17.67 5.09 17.55L2.15 17.5Q2.14 17.5 2.13 17.5Q2.03 17.53 2.03 17.86Q2.03 18.18 2.13 18.21Q2.14 18.21 2.15 18.21Q4.49 18.21 5.61 18.55Q6.49 18.81 6.91 19.39Q7.02 19.55 7.1 19.72Q7.5 20.56 7.5 22.36L7.5 50.13Q7.5 51.93 7.1 52.81Q7.01 53.02 6.88 53.19Q6.45 53.75 5.61 53.98Q4.49 54.28 2.15 54.28Q2.14 54.28 2.13 54.28Q2.03 54.31 2.03 54.64Q2.03 54.96 2.13 54.99Q2.14 55 2.15 55L29.76 55Q30.29 55 30.46 54.79Q30.65 54.57 30.65 54.1Q30.65 51.04 31.2 46.29Q31.2 46.26 31.18 46.23Q31.13 46.11 30.86 46.09Q30.62 46.07 30.56 46.16Q30.54 46.19 30.54 46.24Q29.84 51.17 27.1 52.9Q25.61 53.85 23.52 53.85L15.83 53.85Q13.56 53.85 12.5 53.56Q11.67 53.32 11.25 52.76Q11.14 52.61 11.05 52.45Z" fill="#8A8686" fill-opacity="1.000000" fill-rule="evenodd"/>
	<path id="f" d="M30.52 35.31Q30.54 35.28 30.54 35.24L30.44 29.2Q30.44 28.97 30.33 28.86Q30.22 28.75 29.99 28.75L10.19 28.75Q10.18 28.75 10.18 28.75Q10.09 28.77 10.09 29.05Q10.09 29.31 10.17 29.34Q10.18 29.34 10.19 29.34Q12.15 29.34 13.07 29.62Q13.81 29.84 14.16 30.33Q14.25 30.45 14.32 30.6Q14.65 31.3 14.65 32.8L14.65 55.94Q14.65 57.44 14.32 58.18Q14.24 58.35 14.13 58.49Q13.78 58.96 13.07 59.15Q12.15 59.4 10.19 59.4Q10.18 59.4 10.18 59.4Q10.09 59.43 10.09 59.7Q10.09 59.97 10.17 59.99Q10.18 60 10.19 60Q11.79 60 12.69 59.95L15.99 59.9L20.35 59.95Q21.5 60 23.55 60Q23.58 60 23.6 59.98Q23.69 59.94 23.69 59.7Q23.69 59.45 23.6 59.41Q23.57 59.4 23.55 59.4Q20.74 59.4 19.47 59.1Q18.2 58.8 17.75 58.08Q17.3 57.35 17.3 55.75L17.3 44.8L22.55 44.8Q25.29 44.8 26.37 45.7Q27.44 46.59 27.44 48.85Q27.44 48.86 27.44 48.87Q27.47 48.95 27.73 48.95Q28.01 48.95 28.04 48.87Q28.04 48.86 28.04 48.85L27.99 46.49Q27.94 45.8 27.94 44.35L27.99 40.39Q27.99 40.38 27.99 40.37Q27.96 40.29 27.68 40.29Q27.42 40.29 27.39 40.37Q27.39 40.38 27.39 40.39Q27.39 42.11 26.53 42.92Q26.44 43 26.34 43.08Q25.29 43.85 22.74 43.85L17.3 43.85L17.3 32.85Q17.3 31.49 17.64 30.84Q17.69 30.75 17.75 30.67Q18.12 30.16 18.9 29.95Q19.8 29.7 21.64 29.7L25.1 29.7Q26.48 29.7 27.52 30.29Q28.14 30.64 28.64 31.2Q28.77 31.34 28.88 31.49Q29.99 32.94 29.99 35.24Q29.99 35.28 30.01 35.31Q30.06 35.4 30.26 35.4Q30.47 35.4 30.52 35.31Z" fill="#FFFFFF" fill-opacity="1.000000" fill-rule="evenodd"/>
</svg>
