<svg width="16.000000" height="16.000000" viewBox="0 0 16 16" fill="none" xmlns="http://www.w3.org/2000/svg" xmlns:xlink="http://www.w3.org/1999/xlink">
	<desc>
			Created with Pixso.
	</desc>
	<defs>
		<clipPath id="clip1_169">
			<rect id="mdi-light:phone" rx="0.000000" width="15.000000" height="15.000000" transform="translate(0.500000 0.500000)" fill="white" fill-opacity="0"/>
		</clipPath>
	</defs>
	<rect id="mdi-light:phone" rx="0.000000" width="15.000000" height="15.000000" transform="translate(0.500000 0.500000)" fill="#FFFFFF" fill-opacity="0"/>
	<g clip-path="url(#clip1_169)">
		<path id="Vector" d="M13 14.66C13.55 14.66 14 14.21 14 13.66L14 11.33C14 10.78 13.55 10.33 13 10.33C12.21 10.33 11.45 10.21 10.71 9.96C10.54 9.91 10.35 9.9 10.17 9.94C10 9.99 9.83 10.08 9.7 10.21L8.74 11.17C7.08 10.26 5.72 8.9 4.82 7.24L5.77 6.29C6.04 6.03 6.14 5.64 6.02 5.27C5.78 4.54 5.66 3.77 5.66 3C5.66 2.44 5.21 2 4.66 2L2.33 2C1.78 2 1.33 2.44 1.33 3C1.33 9.43 6.56 14.66 13 14.66ZM2.33 2.66L4.66 2.66C4.75 2.66 4.83 2.7 4.9 2.76C4.96 2.82 5 2.91 5 3C5 3.85 5.13 4.68 5.39 5.48C5.41 5.53 5.41 5.59 5.4 5.65C5.38 5.71 5.35 5.77 5.31 5.81L4 7.12C5.09 9.27 6.7 10.88 8.87 11.98L10.17 10.68C10.21 10.64 10.27 10.61 10.33 10.59C10.39 10.58 10.45 10.58 10.51 10.6C11.31 10.86 12.14 11 13 11C13.18 11 13.33 11.15 13.33 11.33L13.33 13.66C13.33 13.84 13.18 14 13 14C6.93 14 2 9.06 2 3C2 2.91 2.03 2.82 2.09 2.76C2.16 2.7 2.24 2.66 2.33 2.66Z" fill="#43FFD2" fill-opacity="1.000000" fill-rule="nonzero"/>
	</g>
</svg>
