<svg width="18.000000" height="18.000000" viewBox="0 0 18 18" fill="none" xmlns="http://www.w3.org/2000/svg" xmlns:xlink="http://www.w3.org/1999/xlink">
	<desc>
			Created with Pixso.
	</desc>
	<defs>
		<clipPath id="clip1_132">
			<rect id="ph:magnifying-glass-thin" rx="0.000000" width="17.000000" height="17.000000" transform="translate(0.500000 0.500000)" fill="white" fill-opacity="0"/>
		</clipPath>
	</defs>
	<rect id="ph:magnifying-glass-thin" rx="0.000000" width="17.000000" height="17.000000" transform="translate(0.500000 0.500000)" fill="#FFFFFF" fill-opacity="0"/>
	<g clip-path="url(#clip1_132)">
		<path id="Vector" d="M15.94 15.55L12.72 12.32C13.81 11.13 14.39 9.55 14.34 7.93C14.28 6.32 13.59 4.78 12.42 3.67C11.25 2.55 9.69 1.93 8.08 1.95C6.46 1.97 4.91 2.62 3.76 3.76C2.62 4.91 1.97 6.45 1.95 8.07C1.93 9.69 2.55 11.25 3.67 12.42C4.78 13.59 6.32 14.28 7.93 14.33C9.55 14.39 11.13 13.81 12.32 12.72L15.55 15.94C15.6 16 15.67 16.03 15.75 16.03C15.82 16.03 15.89 16 15.94 15.94C16 15.89 16.03 15.82 16.03 15.75C16.03 15.67 16 15.6 15.94 15.55ZM2.53 8.15C2.53 7.04 2.86 5.95 3.47 5.03C4.09 4.1 4.97 3.38 6 2.95C7.03 2.53 8.16 2.42 9.25 2.63C10.34 2.85 11.34 3.39 12.13 4.17C12.92 4.96 13.45 5.96 13.67 7.05C13.89 8.14 13.77 9.28 13.35 10.3C12.92 11.33 12.2 12.21 11.28 12.83C10.35 13.45 9.26 13.78 8.15 13.78C6.66 13.77 5.23 13.18 4.18 12.13C3.12 11.07 2.53 9.64 2.53 8.15Z" fill="#FFFFFF" fill-opacity="1.000000" fill-rule="nonzero"/>
	</g>
</svg>
