<svg width="24.166992" height="24.165039" viewBox="0 0 24.167 24.165" fill="none" xmlns="http://www.w3.org/2000/svg" xmlns:xlink="http://www.w3.org/1999/xlink">
	<desc>
			Created with Pixso.
	</desc>
	<defs/>
	<path id="Vector" d="M24.15 5.49C24.14 4.97 24.1 4.45 24.03 3.94C23.94 3.48 23.79 3.04 23.59 2.62C23.14 1.74 22.42 1.02 21.54 0.58C21.12 0.37 20.68 0.22 20.23 0.14C19.71 0.06 19.19 0.02 18.67 0.01C18.45 0 18.16 0 18.03 0L6.13 0C6 0 5.71 0 5.49 0.01C4.97 0.02 4.45 0.06 3.94 0.13C3.48 0.22 3.04 0.37 2.62 0.57C1.74 1.02 1.02 1.73 0.58 2.62C0.37 3.03 0.22 3.47 0.14 3.93C0.06 4.44 0.02 4.96 0.01 5.49C0 5.71 0 5.99 0 6.13L0 18.03C0 18.16 0 18.45 0.01 18.67C0.02 19.19 0.06 19.7 0.13 20.22C0.22 20.67 0.37 21.12 0.57 21.53C1.02 22.42 1.73 23.13 2.62 23.58C3.03 23.79 3.47 23.93 3.93 24.02C4.44 24.09 4.96 24.14 5.49 24.15C5.71 24.15 5.99 24.16 6.13 24.16L18.03 24.16C18.16 24.16 18.45 24.16 18.67 24.15C19.19 24.14 19.7 24.1 20.22 24.02C20.67 23.94 21.12 23.79 21.53 23.58C22.42 23.14 23.13 22.42 23.58 21.54C23.79 21.12 23.93 20.68 24.02 20.23C24.09 19.71 24.14 19.19 24.15 18.67C24.16 18.45 24.16 18.16 24.16 18.03L24.16 6.13C24.16 6 24.16 5.71 24.15 5.49ZM12.34 20.48L12.34 20.48C10.9 20.48 9.48 20.12 8.22 19.44L3.65 20.63L4.88 16.17C3.93 14.53 3.55 12.62 3.8 10.74C4.05 8.86 4.91 7.11 6.25 5.77C7.59 4.43 9.34 3.57 11.22 3.33C13.1 3.08 15.01 3.46 16.65 4.41C18.29 5.36 19.58 6.82 20.3 8.57C21.03 10.33 21.15 12.27 20.66 14.1C20.17 15.93 19.09 17.55 17.58 18.7C16.08 19.86 14.24 20.48 12.34 20.48Z" fill="#43FFD2" fill-opacity="1.000000" fill-rule="nonzero"/>
	<path id="Vector" d="M12.34 4.71C11.06 4.71 9.81 5.05 8.7 5.7C7.6 6.35 6.7 7.28 6.08 8.4C5.46 9.52 5.15 10.79 5.18 12.07C5.22 13.34 5.59 14.59 6.27 15.67L6.44 15.95L5.72 18.59L8.43 17.88L8.69 18.03C9.79 18.68 11.05 19.03 12.34 19.03L12.34 19.03C14.24 19.03 16.06 18.28 17.4 16.93C18.75 15.59 19.5 13.77 19.5 11.87C19.5 9.97 18.75 8.15 17.41 6.81C16.06 5.46 14.24 4.71 12.34 4.71L12.34 4.71ZM16.55 14.94C16.4 15.2 16.18 15.43 15.93 15.61C15.68 15.78 15.4 15.91 15.1 15.97C14.65 16.04 14.18 16.01 13.75 15.88C13.33 15.75 12.92 15.6 12.52 15.43C11.03 14.68 9.76 13.56 8.84 12.18C8.34 11.54 8.03 10.76 7.96 9.95C7.96 9.62 8.02 9.29 8.15 8.98C8.28 8.67 8.47 8.39 8.72 8.16C8.79 8.08 8.88 8.01 8.97 7.96C9.07 7.92 9.18 7.89 9.29 7.89C9.43 7.89 9.58 7.89 9.7 7.9C9.83 7.9 10.01 7.84 10.19 8.27C10.37 8.7 10.8 9.76 10.85 9.86C10.88 9.92 10.9 9.98 10.91 10.05C10.91 10.12 10.9 10.18 10.87 10.24C10.81 10.37 10.74 10.49 10.65 10.6C10.54 10.72 10.43 10.88 10.33 10.98C10.22 11.08 10.11 11.2 10.24 11.41C10.56 11.97 10.96 12.47 11.43 12.91C11.94 13.36 12.53 13.72 13.16 13.97C13.38 14.08 13.5 14.06 13.63 13.92C13.76 13.78 14.17 13.29 14.31 13.08C14.46 12.86 14.6 12.9 14.79 12.97C14.99 13.04 16.05 13.56 16.27 13.67C16.48 13.78 16.63 13.83 16.68 13.92C16.74 14.27 16.69 14.62 16.55 14.94Z" fill="#43FFD2" fill-opacity="1.000000" fill-rule="nonzero"/>
</svg>
